<!DOCTYPE svg PUBLIC "-//W3C//DTD SVG 1.1//EN" "http://www.w3.org/Graphics/SVG/1.1/DTD/svg11.dtd">
<!-- Uploaded to: SVG Repo, www.svgrepo.com, Transformed by: SVG Repo Mixer Tools -->
<svg version="1.1" id="Icons" xmlns="http://www.w3.org/2000/svg" xmlns:xlink="http://www.w3.org/1999/xlink" viewBox="-3.2 -3.2 38.40 38.40" xml:space="preserve" width="194px" height="194px" fill="#ca1c1c" stroke="#ca1c1c" transform="matrix(1, 0, 0, 1, 0, 0)rotate(-45)">
<g id="SVGRepo_bgCarrier" stroke-width="0"/>
<g id="SVGRepo_tracerCarrier" stroke-linecap="round" stroke-linejoin="round" stroke="#CCCCCC" stroke-width="0.192"/>
<g id="SVGRepo_iconCarrier"> <style type="text/css"> .st0{fill:none;stroke:#ca1c1c;stroke-width:1.568;stroke-linecap:round;stroke-linejoin:round;stroke-miterlimit:10;} </style> <path class="st0" d="M7,24L7,24c-1.1,0-2-0.9-2-2V10c0-1.1,0.9-2,2-2h0c1.1,0,2,0.9,2,2v12C9,23.1,8.1,24,7,24z"/> <path class="st0" d="M3,21L3,21c-1.1,0-2-0.9-2-2v-6c0-1.1,0.9-2,2-2h0c1.1,0,2,0.9,2,2v6C5,20.1,4.1,21,3,21z"/> <path class="st0" d="M25,8L25,8c1.1,0,2,0.9,2,2v12c0,1.1-0.9,2-2,2h0c-1.1,0-2-0.9-2-2V10C23,8.9,23.9,8,25,8z"/> <path class="st0" d="M29,11L29,11c1.1,0,2,0.9,2,2v6c0,1.1-0.9,2-2,2h0c-1.1,0-2-0.9-2-2v-6C27,11.9,27.9,11,29,11z"/> <line class="st0" x1="9" y1="16" x2="23" y2="16"/> </g>
</svg>