<!DOCTYPE svg PUBLIC "-//W3C//DTD SVG 1.1//EN" "http://www.w3.org/Graphics/SVG/1.1/DTD/svg11.dtd">
<!-- Uploaded to: SVG Repo, www.svgrepo.com, Transformed by: SVG Repo Mixer Tools -->
<svg fill="#ca1c1c" height="800px" width="800px" version="1.1" id="Layer_1" xmlns="http://www.w3.org/2000/svg" xmlns:xlink="http://www.w3.org/1999/xlink" viewBox="0 0 512.001 512.001" xml:space="preserve" stroke="#ca1c1c">
<g id="SVGRepo_bgCarrier" stroke-width="0"/>
<g id="SVGRepo_tracerCarrier" stroke-linecap="round" stroke-linejoin="round"/>
<g id="SVGRepo_iconCarrier"> <g> <g> <path d="M499.354,15.882c-2.993-1.885-6.891-1.448-9.39,1.053l-47.815,47.814l-69.547,69.547c-0.67,0.67-1.18,1.438-1.547,2.254 c-0.42,0.646-0.75,1.365-0.962,2.149l-18.362,67.789l-84.011-35.804c-0.142-0.065-0.283-0.131-0.429-0.187L127.103,108.96 L95.431,26.711c-0.039-0.102-0.089-0.198-0.132-0.297c-0.049-0.114-0.097-0.229-0.152-0.341c-0.066-0.132-0.139-0.258-0.212-0.386 c-0.046-0.082-0.086-0.167-0.135-0.246L81.239,3.582c-2.199-3.546-6.853-4.644-10.404-2.458L12.714,36.898 c-1.714,1.055-2.938,2.749-3.401,4.709c-0.462,1.959-0.126,4.021,0.935,5.732l9.773,15.752c1.423,2.293,3.891,3.581,6.439,3.581 c1.101,0,2.216-0.24,3.268-0.744l27.065-12.97l25.84,90.704c0.763,2.679,2.883,4.585,5.397,5.236l77.161,44.083 c23.056,24.462,37.086,47.221,41.199,66.638l8.232,97.047v114.587c0,0.003,0,0.007,0,0.01c0,0.003,0,0.005,0,0.008l0.083,33.15 c0.01,4.174,3.397,7.552,7.57,7.553l68.247,0.022c0.001,0,0.001,0,0.002,0c2.012,0,3.942-0.801,5.362-2.225 c1.422-1.426,2.216-3.358,2.21-5.371l-0.06-18.537c-0.011-3.561-2.503-6.634-5.985-7.381l-31.445-6.742V356.829l10.092-79.148 l51.614,27.942l-22.466,70.515c-0.857,1.385-1.282,3.052-1.092,4.798l0.047,0.44c0,0.001,0,0.001,0,0.002l10.183,93.463 l0.179,29.633c0.025,4.165,3.408,7.527,7.573,7.527h70.16c3.226,0,6.097-2.044,7.154-5.091c1.057-3.047,0.067-6.431-2.466-8.428 l-35.654-28.11l-7.621-92.127l23.475-69.338c5.979,8.115,15.597,13.391,26.427,13.391h26.248 c18.093,0,32.814-14.721,32.814-32.814v-16.152c0-18.093-14.721-32.814-32.814-32.814h-26.246c-2.275,0-4.496,0.233-6.642,0.676 l21.789-80.441l62.395-62.395c0.076-0.076,0.14-0.158,0.213-0.235c0.068-0.074,0.137-0.146,0.202-0.223 c0.161-0.188,0.309-0.383,0.447-0.582c0.024-0.034,0.051-0.067,0.075-0.101c0.169-0.251,0.32-0.512,0.455-0.777 c0.019-0.038,0.036-0.079,0.055-0.118c0.112-0.23,0.212-0.464,0.299-0.703c0.012-0.033,0.029-0.064,0.041-0.098l24.916-70.714 C503.636,21.471,502.345,17.766,499.354,15.882z M29.308,49.335l-2.185-3.522l45.224-27.835l5.131,8.272l-19.136,9.17 L29.308,49.335z M96.238,136.146l-25.59-89.827l13.595-6.515l34.931,90.716c1.503,3.902,5.885,5.848,9.788,4.346 c2.797-1.077,4.58-3.634,4.817-6.433l25.975,11.402l-14.396,24.375L96.238,136.146z M222.686,272.534 c0.083-0.449,0.132-0.91,0.132-1.382c0-4.503-0.484-9.125-1.425-13.855l-1.91-22.518c-0.354-4.167-4.01-7.254-8.185-6.905 c-0.324,0.027-0.639,0.082-0.949,0.147c-3.281-6.068-7.203-12.277-11.772-18.621c1.825-0.528,3.458-1.73,4.475-3.51 c2.075-3.632,0.813-8.257-2.819-10.332l-26.569-15.179c-0.019-0.011-0.038-0.022-0.059-0.033l-15.094-8.624l15.212-25.758 l83.471,36.641l2.341,62.88l-13.169,103.289h-17.215L222.686,272.534z M229.768,363.919h15.695v104.443l-15.695-3.266V363.919z M282.913,492.016l0.015,4.837l-53.097-0.017l-0.04-16.208L282.913,492.016z M365.062,496.855h-40.798l-0.09-14.907l21.869-0.088 L365.062,496.855z M373.178,252.153c-4.846,5.721-7.778,13.112-7.778,21.179v7.209l-31.937,94.333 c-0.002,0.005-0.002,0.009-0.004,0.014c-0.077,0.227-0.141,0.458-0.197,0.694c-0.003,0.014-0.008,0.027-0.011,0.041 c-0.041,0.184-0.071,0.371-0.099,0.558c-0.01,0.067-0.026,0.132-0.034,0.199c-0.009,0.073-0.01,0.147-0.016,0.221 c-0.017,0.183-0.034,0.365-0.037,0.547c0,0.014,0.001,0.029,0.001,0.044c-0.004,0.241,0.004,0.482,0.023,0.721 c0,0.005,0,0.009,0,0.014l7.346,88.81l-17.089,0.069l-9.298-85.347l24.196-75.945c0.417-0.798,0.674-1.635,0.79-2.48l9.425-29.584 c1.269-3.985-0.932-8.245-4.916-9.514c-3.986-1.268-8.244,0.932-9.514,4.916l-7.035,22.081l-54.239-29.363l1.885-14.786 c0.009-0.073,0.009-0.144,0.016-0.217c0.013-0.131,0.024-0.263,0.03-0.396c0.007-0.143,0.007-0.285,0.006-0.427 c-0.001-0.067,0.005-0.132,0.003-0.2l-2.097-56.32l93.141,39.694c4.034,2.191,7.01,5.825,8.396,10.259 C375.495,243.529,375.142,248.111,373.178,252.153z M424.462,255.664v-0.001c9.742,0,17.669,7.927,17.669,17.669v16.152 c0,1.999-0.349,3.914-0.964,5.709l-20.148-39.528H424.462z M398.213,255.663h5.807l25.815,50.648 c-1.696,0.543-3.5,0.841-5.373,0.841h-26.248c-9.742,0-17.669-7.927-17.669-17.669v-16.152 C380.544,263.59,388.471,255.663,398.213,255.663z M410.806,141.89c-0.057-0.016-0.11-0.038-0.167-0.055 c-4.041-1.094-8.195,1.293-9.289,5.329l-1.805,6.665c-0.357,0.779-0.583,1.604-0.661,2.442l-17.769,65.601 c-2.457-2.597-5.344-4.798-8.596-6.5c-0.178-0.093-0.358-0.179-0.543-0.257l-6.177-2.632l18.562-68.526l63.144-63.145l6.095,6.095 l6.095,6.095L410.806,141.89z M467.255,79.147l-5.548-5.549l-3.494-3.494l18.883-18.883L467.255,79.147z"/> </g> </g> </g>
</svg>